<svg width="21" height="21" viewBox="0 0 21 21" fill="none" xmlns="http://www.w3.org/2000/svg">
<path fill-rule="evenodd" clip-rule="evenodd" d="M14.7147 7.66652C14.3276 7.4182 14.2148 6.9021 14.4633 6.51502C14.7118 6.12795 15.2276 6.01535 15.6147 6.26389C16.7551 6.99546 17.6947 7.95936 18.3502 9.07499C18.8308 9.88674 18.8386 10.8941 18.3706 11.7134C18.3686 11.7169 18.3665 11.7205 18.3643 11.724C16.8579 14.2727 13.8614 16.0367 10.4002 16.0367C6.92998 16.0367 3.92731 14.2634 2.43387 11.6987C2.43241 11.6961 2.43095 11.6935 2.42949 11.6909C1.97488 10.8908 1.97488 9.91051 2.42925 9.11021C2.43071 9.10762 2.43241 9.10503 2.43387 9.10222C3.92731 6.53771 6.92998 4.76465 10.4002 4.76465C11.5085 4.76465 12.5697 4.94532 13.5487 5.27491C13.9849 5.42166 14.2195 5.89453 14.0729 6.33045C13.9263 6.76637 13.4532 7.00129 13.0173 6.85455C12.2033 6.58072 11.3213 6.43116 10.4002 6.43116C7.56742 6.43116 5.09765 7.84374 3.8748 9.93991C3.71459 10.2273 3.71532 10.5777 3.87869 10.8677C5.10008 12.9587 7.56888 14.37 10.4002 14.37C13.2276 14.37 15.693 12.9626 16.9289 10.8768C17.0943 10.5796 17.0894 10.2168 16.9158 9.9237L16.9144 9.9211C16.3883 9.02506 15.6305 8.25415 14.7147 7.66652ZM10.4002 6.78928C12.3932 6.78928 14.0114 8.4076 14.0114 10.4007C14.0114 12.3938 12.3932 14.0119 10.4002 14.0119C8.40713 14.0119 6.78898 12.3938 6.78898 10.4007C6.78898 8.4076 8.40713 6.78928 10.4002 6.78928ZM10.4002 8.45601C9.32683 8.45601 8.45551 9.32742 8.45551 10.4007C8.45551 11.4737 9.32683 12.3451 10.4002 12.3451C11.4733 12.3451 12.3446 11.4737 12.3446 10.4007C12.3446 9.32742 11.4733 8.45601 10.4002 8.45601Z" fill="#345261"/>
</svg>
